<mxfile host="app.diagrams.net" modified="2023-01-30T07:39:43.166Z" agent="5.0 (Windows NT 10.0; Win64; x64) AppleWebKit/537.36 (KHTML, like Gecko) Chrome/109.0.0.0 Safari/537.36" etag="BJBeUK_HOHga8JlOfUHo" version="20.8.11" type="github">
  <diagram name="Page-1" id="A7Ttd5ZNTIksyudVrqre">
    <mxGraphModel dx="794" dy="405" grid="1" gridSize="10" guides="1" tooltips="1" connect="1" arrows="1" fold="1" page="1" pageScale="1" pageWidth="850" pageHeight="1100" math="0" shadow="0">
      <root>
        <mxCell id="0" />
        <mxCell id="1" parent="0" />
        <mxCell id="g9-vL5K1jff-xqQ-eDzK-3" value="" style="edgeStyle=orthogonalEdgeStyle;rounded=0;orthogonalLoop=1;jettySize=auto;html=1;" edge="1" parent="1" source="g9-vL5K1jff-xqQ-eDzK-1" target="g9-vL5K1jff-xqQ-eDzK-2">
          <mxGeometry relative="1" as="geometry" />
        </mxCell>
        <mxCell id="g9-vL5K1jff-xqQ-eDzK-1" value="Start" style="ellipse;whiteSpace=wrap;html=1;fillColor=#ffe6cc;strokeColor=#d79b00;" vertex="1" parent="1">
          <mxGeometry x="365" y="220" width="90" height="30" as="geometry" />
        </mxCell>
        <mxCell id="g9-vL5K1jff-xqQ-eDzK-9" value="" style="edgeStyle=orthogonalEdgeStyle;rounded=0;orthogonalLoop=1;jettySize=auto;html=1;" edge="1" parent="1" source="g9-vL5K1jff-xqQ-eDzK-2" target="g9-vL5K1jff-xqQ-eDzK-4">
          <mxGeometry relative="1" as="geometry" />
        </mxCell>
        <mxCell id="g9-vL5K1jff-xqQ-eDzK-2" value="Create SPT Masa&lt;br&gt;*fill the required fields" style="shape=parallelogram;perimeter=parallelogramPerimeter;whiteSpace=wrap;html=1;fixedSize=1;fillColor=#d5e8d4;strokeColor=#82b366;" vertex="1" parent="1">
          <mxGeometry x="340" y="280" width="140" height="60" as="geometry" />
        </mxCell>
        <mxCell id="g9-vL5K1jff-xqQ-eDzK-6" value="" style="edgeStyle=orthogonalEdgeStyle;rounded=0;orthogonalLoop=1;jettySize=auto;html=1;" edge="1" parent="1" source="g9-vL5K1jff-xqQ-eDzK-4" target="g9-vL5K1jff-xqQ-eDzK-5">
          <mxGeometry relative="1" as="geometry" />
        </mxCell>
        <mxCell id="g9-vL5K1jff-xqQ-eDzK-4" value="Save" style="rounded=0;whiteSpace=wrap;html=1;fillColor=#dae8fc;strokeColor=#6c8ebf;" vertex="1" parent="1">
          <mxGeometry x="360" y="370" width="100" height="40" as="geometry" />
        </mxCell>
        <mxCell id="g9-vL5K1jff-xqQ-eDzK-8" value="" style="edgeStyle=orthogonalEdgeStyle;rounded=0;orthogonalLoop=1;jettySize=auto;html=1;" edge="1" parent="1" source="g9-vL5K1jff-xqQ-eDzK-5">
          <mxGeometry relative="1" as="geometry">
            <mxPoint x="410" y="550" as="targetPoint" />
          </mxGeometry>
        </mxCell>
        <mxCell id="g9-vL5K1jff-xqQ-eDzK-5" value="Confirm" style="rounded=0;whiteSpace=wrap;html=1;fillColor=#dae8fc;strokeColor=#6c8ebf;" vertex="1" parent="1">
          <mxGeometry x="360" y="440" width="100" height="40" as="geometry" />
        </mxCell>
        <mxCell id="g9-vL5K1jff-xqQ-eDzK-12" value="" style="edgeStyle=orthogonalEdgeStyle;rounded=0;orthogonalLoop=1;jettySize=auto;html=1;" edge="1" parent="1" source="g9-vL5K1jff-xqQ-eDzK-10" target="g9-vL5K1jff-xqQ-eDzK-11">
          <mxGeometry relative="1" as="geometry" />
        </mxCell>
        <mxCell id="g9-vL5K1jff-xqQ-eDzK-10" value="Output -&amp;gt;&lt;br&gt;SPT Masa Xlsx&amp;nbsp;&lt;br&gt;file created&amp;nbsp;" style="shape=parallelogram;perimeter=parallelogramPerimeter;whiteSpace=wrap;html=1;fixedSize=1;fillColor=#d5e8d4;strokeColor=#82b366;" vertex="1" parent="1">
          <mxGeometry x="350" y="510" width="120" height="60" as="geometry" />
        </mxCell>
        <mxCell id="g9-vL5K1jff-xqQ-eDzK-11" value="End" style="ellipse;whiteSpace=wrap;html=1;fillColor=#ffe6cc;strokeColor=#d79b00;" vertex="1" parent="1">
          <mxGeometry x="365" y="600" width="90" height="30" as="geometry" />
        </mxCell>
        <mxCell id="g9-vL5K1jff-xqQ-eDzK-13" value="" style="rounded=0;whiteSpace=wrap;html=1;fillColor=none;" vertex="1" parent="1">
          <mxGeometry x="210" y="200" width="400" height="450" as="geometry" />
        </mxCell>
      </root>
    </mxGraphModel>
  </diagram>
</mxfile>
